<?xml version="1.0" encoding="utf-8"?>
<svg version="1.1" width="256px" height="256px" viewBox="0 0 256 256" xmlns="http://www.w3.org/2000/svg">
  <path d="M 156.464 43.526 C 183.294 70.356 186.737 111.677 166.794 142.381 C 168.516 143.815 169.951 145.394 171.959 146.828 C 174.829 149.124 178.703 151.994 183.581 155.293 C 188.459 158.737 191.615 160.889 193.05 162.037 C 199.076 166.485 203.524 170.215 206.537 173.228 C 211.128 177.819 215.145 182.554 218.589 187.576 C 222.176 192.597 224.902 197.475 227.054 202.497 C 229.063 207.519 230.067 212.253 229.636 216.845 C 229.349 221.436 227.628 225.31 224.471 228.466 C 221.315 231.623 217.441 233.344 212.85 233.631 C 208.402 233.918 203.524 233.057 198.646 230.905 C 193.624 228.896 188.602 226.027 183.724 222.44 C 178.703 218.997 173.968 214.979 169.377 210.388 C 166.364 207.375 162.633 202.927 158.329 197.045 C 156.894 195.18 154.742 192.023 151.586 187.576 C 148.429 182.984 145.847 179.397 143.551 176.384 C 141.255 173.515 139.39 171.363 137.238 169.211 C 107.539 184.849 69.948 180.115 44.84 155.15 C 14.136 124.303 14.136 74.23 44.84 43.526 C 75.687 12.679 125.617 12.679 156.464 43.526 Z M 136.234 134.776 C 155.746 115.12 155.746 83.412 136.234 63.756 C 116.578 44.1 84.726 44.1 65.213 63.756 C 45.557 83.412 45.557 115.12 65.213 134.776 C 84.726 154.433 116.578 154.433 136.234 134.776 Z" style="fill: rgb(216, 72, 0);"/>
  <path d="M 190.102 171.556 C 188.244 171.472 186.53 171.808 185.541 172.443 C 185.066 172.749 185.064 172.749 186.252 173.177 C 189.584 174.384 192.3 177.62 192.976 181.183 C 193.386 183.34 193.037 185.884 192.073 187.788 L 191.567 188.782 L 192.022 188.651 C 194.213 188.018 196.505 186.063 197.463 184.009 C 199.572 179.498 197.705 174.358 193.194 172.247 C 192.103 171.735 191.59 171.623 190.101 171.556 Z M 182.764 174.478 C 178.321 174.311 174.45 177.492 173.754 181.885 C 173.006 186.419 176.157 190.981 180.652 191.864 C 187.021 193.114 192.536 187.298 190.908 181.049 C 190.489 179.436 189.926 178.446 188.727 177.191 C 187.52 175.923 186.283 175.189 184.636 174.759 C 184.025 174.6 183.398 174.507 182.764 174.478 Z M 195.213 189.507 L 194.468 190.399 C 193.804 191.189 193.758 191.306 194.073 191.415 C 196.033 192.075 198.225 193.932 199.176 195.737 C 199.999 197.296 200.754 199.481 200.9 200.722 C 200.968 201.294 201.052 201.874 201.093 202.008 C 201.148 202.183 201.72 202.252 203.065 202.252 L 204.96 202.252 L 204.829 200.442 C 204.639 197.806 204.225 196.096 203.353 194.325 C 201.92 191.419 199.601 189.766 196.715 189.597 L 195.213 189.507 Z M 176.105 191.946 L 174.894 192.111 C 173.306 192.326 171.501 192.933 170.431 193.612 C 169.264 194.355 167.654 196.159 167.045 197.407 C 165.995 199.564 165.348 203.463 165.645 205.844 L 165.783 206.953 L 182.457 206.902 L 199.128 206.853 L 199.189 205 C 199.324 200.597 198.122 197.172 195.577 194.697 C 194.244 193.402 192.069 192.405 189.894 192.092 L 188.878 191.947 L 185.784 195.045 C 184.084 196.748 182.602 198.144 182.491 198.144 C 182.381 198.144 180.899 196.748 179.197 195.045 L 176.105 191.947 Z" style="fill: rgb(255, 255, 255);" transform="matrix(0.712585, -0.701586, 0.701586, 0.712585, -79.525482, 184.373039)"/>
  <path d="M 73.611 67.254 L 73.611 77.844 L 76.637 77.844 L 76.637 74.819 C 76.637 72.519 78.831 70.28 81.176 70.28 L 81.176 71.581 C 82.008 70.794 83.082 70.28 84.202 70.28 L 84.202 74.819 L 85.715 74.819 C 87.379 74.819 88.74 76.18 88.74 77.844 C 88.74 79.508 87.379 80.87 85.715 80.87 L 84.202 80.87 L 84.202 89.948 C 84.202 90.78 83.521 91.46 82.689 91.46 C 81.857 91.46 81.176 90.78 81.176 89.948 L 81.176 86.649 C 80.707 86.816 80.193 86.922 79.663 86.922 L 79.663 89.948 C 79.663 90.78 78.982 91.46 78.15 91.46 C 77.318 91.46 76.637 90.78 76.637 89.948 L 76.637 86.922 L 73.611 86.922 L 73.611 89.948 C 73.611 90.78 72.931 91.46 72.099 91.46 C 71.266 91.46 70.586 90.78 70.586 89.948 L 70.586 86.922 C 70.056 86.922 69.542 86.816 69.073 86.649 L 69.073 89.948 C 69.073 90.78 68.392 91.46 67.56 91.46 C 66.728 91.46 66.047 90.78 66.047 89.948 L 66.047 83.896 L 64.534 83.896 L 64.534 82.383 C 64.534 79.872 66.561 77.844 69.073 77.844 L 72.099 77.844 L 72.099 67.254 L 73.611 67.254 Z M 81.176 77.844 C 82.008 77.844 82.689 77.164 82.689 76.331 C 82.689 75.499 82.008 74.819 81.176 74.819 C 80.344 74.819 79.663 75.499 79.663 76.331 C 79.663 77.164 80.344 77.844 81.176 77.844 Z" style=""/>
  <path d="M 129.905 75.435 C 132.583 76.811 132.803 80.091 130.929 82.727 C 129.759 84.366 127.519 85.479 125.864 85.332 L 121.999 92.638 L 120.462 92.638 L 116.582 85.332 C 114.928 85.567 112.586 84.41 111.386 82.712 C 109.511 80.076 109.732 76.797 112.425 75.435 C 113.127 75.084 113.83 74.953 114.518 74.982 C 114.503 75.567 114.534 76.153 114.621 76.753 C 115.002 79.227 116.685 81.921 118.808 83.151 C 118.53 83.956 118.09 84.6 117.519 84.981 L 120.462 90.559 L 120.462 82.273 C 118.471 81.731 116.45 79.111 116.07 76.534 C 115.485 72.654 117.534 69.214 121.194 69.214 C 124.854 69.214 126.904 72.654 126.318 76.534 C 125.937 79.111 123.917 81.731 121.926 82.273 L 121.926 90.72 L 124.957 85.097 C 124.312 84.761 123.829 84.059 123.507 83.195 C 125.673 81.98 127.387 79.257 127.767 76.753 C 127.855 76.153 127.884 75.553 127.87 74.967 C 128.544 74.953 129.216 75.084 129.905 75.435 Z" style=""/>
  <path d="M 98.387 108.762 C 98.387 107.71 97.649 106.517 96.818 105.622 C 96.032 106.407 95.247 107.789 95.247 108.762 C 95.247 109.516 95.953 110.332 96.818 110.332 C 97.681 110.332 98.387 109.594 98.387 108.762 Z M 104.668 108.762 C 104.668 107.71 103.93 106.517 103.097 105.622 C 102.313 106.407 101.528 107.789 101.528 108.762 C 101.528 109.516 102.234 110.332 103.097 110.332 C 103.962 110.332 104.668 109.594 104.668 108.762 Z M 98.387 118.183 L 98.387 112.687 C 98.387 111.824 97.681 111.118 96.818 111.118 C 95.923 111.118 95.247 111.886 95.247 112.687 L 95.247 118.183 C 95.247 119.046 95.953 119.752 96.818 119.752 C 97.712 119.752 98.387 118.983 98.387 118.183 Z M 104.668 118.183 L 104.668 112.687 C 104.668 111.824 103.962 111.118 103.097 111.118 C 102.203 111.118 101.528 111.886 101.528 112.687 L 101.528 118.183 C 101.528 119.046 102.234 119.752 103.097 119.752 C 103.992 119.752 104.668 118.983 104.668 118.183 Z M 110.948 119.752 C 110.948 117.429 108.734 115.404 105.453 114.32 L 105.453 118.183 C 105.453 119.485 104.401 120.538 103.097 120.538 C 101.795 120.538 100.742 119.485 100.742 118.183 L 100.742 113.488 C 100.475 113.488 100.224 113.473 99.957 113.473 C 99.691 113.473 99.44 113.488 99.173 113.488 L 99.173 118.183 C 99.173 119.485 98.12 120.538 96.818 120.538 C 95.514 120.538 94.463 119.485 94.463 118.183 L 94.463 114.32 C 91.181 115.404 88.967 117.429 88.967 119.752 C 88.967 121.967 90.459 123.914 94.007 125.044 C 95.749 125.593 97.76 126.802 99.957 126.802 C 102.155 126.802 104.181 125.578 105.908 125.028 C 109.44 123.914 110.948 121.967 110.948 119.752 Z M 99.957 128.278 C 102.203 128.278 104.259 127.037 106.05 126.535 C 109.032 125.703 109.959 124.431 110.948 122.893 L 110.948 127.603 C 110.948 131.073 106.034 133.883 99.957 133.883 C 93.881 133.883 88.967 131.073 88.967 127.603 L 88.967 122.893 C 89.972 124.447 91.039 125.719 93.913 126.551 C 95.687 127.069 97.744 128.278 99.957 128.278 Z" style=""/>
</svg>